<?xml version="1.0" standalone="no"?>
<!DOCTYPE svg PUBLIC "-//W3C//DTD SVG 20010904//EN"
 "http://www.w3.org/TR/2001/REC-SVG-20010904/DTD/svg10.dtd">
<svg version="1.0" xmlns="http://www.w3.org/2000/svg"
 width="512.000000pt" height="512.000000pt" viewBox="0 0 512.000000 512.000000"
 preserveAspectRatio="xMidYMid meet">

<g transform="translate(0.000000,512.000000) scale(0.100000,-0.100000)"
fill="white" stroke="none">
<path d="M2325 5110 c-510 -52 -980 -243 -1371 -558 -150 -120 -177 -156 -158
-207 9 -24 61 -47 87 -39 12 4 51 33 87 64 777 687 1934 794 2820 260 338
-203 637 -502 840 -840 216 -358 340 -807 340 -1230 0 -422 -124 -872 -340
-1230 -250 -417 -635 -762 -1070 -961 -557 -254 -1176 -287 -1760 -93 -547
182 -1010 554 -1310 1054 -497 825 -441 1894 139 2670 40 53 71 105 71 118 0
56 -51 93 -99 72 -14 -6 -55 -49 -90 -96 -649 -872 -681 -2061 -79 -2956 382
-570 988 -971 1652 -1092 844 -156 1685 104 2286 706 463 464 722 1060 747
1718 26 711 -242 1393 -749 1900 -392 393 -893 643 -1453 726 -122 18 -467 26
-590 14z"/>
<path d="M2013 4752 c-75 -27 -152 -89 -194 -157 -18 -29 -19 -29 -96 -26 -97
3 -170 -21 -237 -80 -52 -46 -102 -140 -112 -211 -5 -40 -12 -50 -45 -73 -91
-59 -135 -162 -126 -291 5 -67 3 -85 -10 -95 -8 -7 -41 -45 -73 -84 -276 -339
-420 -750 -420 -1200 0 -104 -3 -126 -29 -200 -135 -382 -65 -836 179 -1164
72 -97 214 -233 307 -294 207 -137 547 -241 943 -288 152 -18 526 -15 690 5
287 35 655 132 830 219 61 30 65 34 68 70 4 42 -10 64 -46 78 -18 7 -49 -1
-135 -35 -491 -192 -1027 -249 -1547 -165 -340 54 -591 146 -767 278 -587 442
-587 1320 -1 1761 357 269 824 303 1210 87 35 -20 113 -74 172 -120 305 -239
571 -311 960 -262 185 23 310 4 454 -69 262 -134 417 -437 373 -726 -36 -232
-141 -382 -376 -536 -114 -75 -120 -81 -123 -116 -4 -45 24 -78 66 -78 28 0
150 70 253 146 99 72 196 193 254 317 59 124 78 213 78 367 0 155 -17 235 -79
369 l-36 80 11 108 c14 132 14 260 1 372 -8 67 -7 86 4 95 37 31 46 60 46 153
l0 93 36 0 c50 0 100 26 124 65 17 28 20 50 20 149 0 132 -10 164 -63 196 -29
18 -51 20 -224 20 l-192 0 -50 74 c-119 176 -293 359 -450 472 -69 50 -83 65
-92 99 -26 95 -101 190 -183 229 -29 14 -34 22 -40 63 -15 116 -107 237 -221
290 -163 75 -374 16 -471 -133 -13 -19 -19 -21 -47 -13 -18 5 -56 9 -85 9 -51
0 -55 2 -105 53 -77 79 -149 110 -261 114 -69 3 -103 -1 -143 -15z m214 -147
c21 -9 45 -23 55 -32 16 -14 14 -17 -32 -40 -27 -13 -69 -46 -92 -72 -42 -46
-44 -47 -83 -39 -22 5 -51 7 -66 4 -33 -6 -85 54 -70 81 16 31 75 81 111 97
46 20 131 20 177 1z m839 -4 c49 -22 111 -92 124 -140 5 -20 10 -61 10 -92 0
-65 19 -88 87 -108 110 -31 171 -157 131 -271 -12 -35 -216 -297 -301 -387
-64 -67 -77 -68 -77 -3 0 70 -33 150 -85 206 -44 47 -45 48 -34 88 13 46 6
139 -13 182 -26 61 -72 117 -123 149 -46 30 -53 39 -59 75 -4 23 -13 55 -21
71 -20 37 -19 42 8 54 12 6 31 29 42 52 59 123 194 177 311 124z m-1275 -202
c26 -13 52 -38 71 -69 36 -58 67 -72 130 -59 37 8 56 6 99 -9 75 -26 112 -15
140 41 28 55 46 75 91 98 66 34 147 22 201 -29 42 -39 57 -75 57 -131 0 -65
15 -97 54 -111 65 -24 97 -44 115 -74 26 -42 34 -79 27 -119 -6 -32 -7 -32
-66 -34 -39 -1 -78 -10 -117 -28 l-59 -26 -59 28 c-154 71 -340 3 -416 -153
-16 -34 -25 -71 -27 -121 l-4 -73 -172 0 -171 -1 -139 143 c-76 79 -151 163
-167 187 -62 95 -19 220 83 246 49 12 63 40 63 120 1 62 5 78 28 113 51 78
154 104 238 61z m1860 -526 c85 -68 199 -187 272 -283 l56 -75 -279 -5 -278
-5 -28 -25 c-40 -38 -54 -80 -54 -168 l0 -79 -50 -5 c-38 -4 -58 -12 -81 -34
-41 -39 -52 -84 -47 -201 3 -114 17 -144 79 -175 31 -16 77 -18 520 -18 454 0
487 -1 494 -17 10 -26 19 -353 10 -353 -4 0 -26 15 -49 34 -109 89 -236 151
-373 182 -90 21 -257 23 -347 6 -97 -19 -298 -15 -394 8 -147 35 -251 91 -454
242 -131 97 -209 143 -319 188 -295 123 -667 117 -972 -15 -159 -69 -333 -195
-439 -319 l-61 -70 6 69 c19 233 129 536 270 745 58 86 156 210 166 210 4 0
61 -58 127 -130 122 -133 163 -168 223 -188 22 -8 110 -12 243 -12 l210 0 45
-39 c62 -55 126 -75 222 -69 57 3 89 11 122 29 l44 25 45 -26 c39 -22 57 -25
140 -25 107 0 160 19 222 79 28 27 44 34 91 39 107 11 143 40 324 263 89 109
173 218 185 241 12 23 27 39 33 36 5 -4 40 -30 76 -60z m-1214 -144 c78 -48
102 -159 51 -236 -89 -135 -308 -72 -308 89 0 137 141 218 257 147z m326 20
c146 -37 174 -221 48 -306 -38 -26 -112 -31 -155 -12 -23 11 -23 13 -11 43 24
58 28 120 11 185 -21 81 -21 79 17 90 43 12 42 12 90 0z m1727 -454 l0 -65
-500 0 -500 0 0 65 0 65 500 0 500 0 0 -65z m-180 -280 l0 -65 -500 0 -500 0
0 65 0 65 500 0 500 0 0 -65z"/>
<path d="M1757 2879 c-389 -42 -727 -331 -829 -709 -20 -73 -23 -108 -22 -255
0 -155 3 -178 27 -258 100 -326 330 -556 662 -661 272 -86 541 -126 846 -126
448 0 859 99 1248 302 334 173 464 299 515 495 20 76 20 211 1 283 -52 197
-212 354 -410 405 -74 19 -160 19 -290 0 -194 -28 -388 -11 -572 50 -170 57
-296 128 -466 263 -208 164 -458 238 -710 211z m223 -156 c5 -5 -912 -923
-922 -923 -5 0 -8 53 -8 118 0 139 21 236 76 352 139 295 459 485 779 462 39
-3 72 -7 75 -9z m296 -105 c28 -17 90 -61 137 -98 l85 -67 -579 -579 -579
-579 -56 55 c-60 59 -132 161 -164 231 l-19 44 526 527 527 527 35 -15 c20 -8
59 -29 87 -46z m437 -288 c78 -37 229 -89 300 -104 15 -4 27 -10 27 -14 0 -4
-255 -262 -567 -574 l-568 -567 -70 15 c-101 21 -230 62 -305 95 l-64 30 579
579 c319 319 580 580 581 580 1 0 40 -18 87 -40z m1050 -121 c20 -5 37 -13 37
-17 0 -4 -263 -270 -584 -591 l-584 -584 -238 6 c-132 4 -254 10 -273 13 l-33
7 573 573 574 574 95 1 c52 0 133 6 180 13 108 17 205 19 253 5z m216 -138
c86 -108 113 -256 72 -388 -39 -125 -101 -187 -311 -313 -146 -88 -320 -167
-482 -221 -116 -39 -313 -89 -353 -89 -13 0 151 170 505 525 289 289 528 525
532 525 3 0 20 -18 37 -39z"/>
</g>
</svg>
